# xmcd CD database file
#
# Track frame offsets:
#	150
#	22891
#	43887
#	65342
#	87695
#	108758
#	128385
#	152686
#	166691
#	185605
#	208115
#	233301
#	250288
#	270113
#	286574
#
# Disc length: 4094 seconds
#
# Revision: 1
# Processed by: cddbd v1.5.1PL2 Copyright (c) Steve Scherf et al.
# Submitted via: CDex 1.50
#
DISCID=b40ffc0f
DTITLE=Silje Nergaard - The Essential
DYEAR=2005
DGENRE=Jazz
TTITLE0=Be still my heart
TTITLE1=We should be happier by now
TTITLE2=Shame on you
TTITLE3=Dance me love
TTITLE4=I don't want to see you cry
TTITLE5=If you leave me now
TTITLE6=On and on
TTITLE7=Me oh my
TTITLE8=The waltz
TTITLE9=Tell me where you're going
TTITLE10=How am I supposed to see the stars
TTITLE11=Keep on backing loosers
TTITLE12=Japanese blue
TTITLE13=Lullabye to Erle
TTITLE14=Gå en annen vei
EXTD=YEAR: 2005
EXTT0=
EXTT1=
EXTT2=
EXTT3=
EXTT4=
EXTT5=
EXTT6=
EXTT7=
EXTT8=
EXTT9=
EXTT10=
EXTT11=
EXTT12=
EXTT13=
EXTT14=
PLAYORDER=
